# xmcd
#
# Track frame offsets:
#	182
#	19282
#	38465
#	52785
#	72400
#	82677
#	96920
#	116117
#	130312
#	143137
#	155230
#	172472
#	187270
#	201462
#	211040
#	226182
#	240155
#	254575
#	266372
#	281117
#
# Disc length: 3940 seconds
#
# Revision: 1
# Processed by: cddbd v1.5.2PL0 Copyright (c) Steve Scherf et al.
# Submitted via: audiograbber 1.82.02
#
DISCID=260f6214
DTITLE=Various Artist - Best of Church Street Station Live! Vol.2
DYEAR=1900
DGENRE=Country
TTITLE0=Tanya Tucker - Delta Dawn 
TTITLE1=Nitty Gritty Dirt Band - Mr.Bojangles
TTITLE2=Kathy Mattea - Heart Of The Country
TTITLE3=Bellamy Brothers - If I Said You Had A Beautiful Body
TTITLE4=Bellamy Brothers - Let Your Love Flow
TTITLE5=Freddy Fender - Mexico Rose
TTITLE6=Freddy Fender - Secret Love
TTITLE7=George Jones - Who's Gonna Fill Their Shoes
TTITLE8=Dave and Sugar - The Door Is Always Open
TTITLE9=Patty Loveless - Lonely Days,Lonely Nights
TTITLE10=Bertie Higgins - Key Largo
TTITLE11=Gene Watson - Carmen
TTITLE12=Sweethearts of the Rodeo - Chains Of Gold
TTITLE13=Leroy Van Dyke - The Auctioneer
TTITLE14=Tom T Hall - I Like Beer
TTITLE15=Earl Thomas Conley - Love Don't Care
TTITLE16=Lorrie Morgan - Please Mr.Please
TTITLE17=Lee Greenwood - God Bless America
TTITLE18=Jeannie C Riley - Harper Valley P.T.A.
TTITLE19=Merle Haggard - Okie From Muskogee
EXTD=
EXTT0=
EXTT1=
EXTT2=
EXTT3=
EXTT4=
EXTT5=
EXTT6=
EXTT7=
EXTT8=
EXTT9=
EXTT10=
EXTT11=
EXTT12=
EXTT13=
EXTT14=
EXTT15=
EXTT16=
EXTT17=
EXTT18=
EXTT19=
PLAYORDER=
